<?xml version="1.0" encoding="UTF-8"?>
<svg width="136px" height="28px" viewBox="0 0 136 28" version="1.1" xmlns="http://www.w3.org/2000/svg" xmlns:xlink="http://www.w3.org/1999/xlink">
    <!-- Generator: Sketch 47 (45396) - http://www.bohemiancoding.com/sketch -->
    <title>logo</title>
    <desc>Created with Sketch.</desc>
    <defs></defs>
    <g id="AIDPAY" stroke="none" stroke-width="1" fill="none" fill-rule="evenodd">
        <g id="charitystars-ICO" transform="translate(-30.000000, -37.000000)">
            <g id="Header" transform="translate(30.000000, 30.000000)">
                <g id="logo" transform="translate(0.000000, 7.000000)">
                    <path d="M26.3153645,28 L14.3575327,0.631272727 L12.5272523,0.631272727 L0.528747664,28 L6.42631776,28 L13.462729,11.6683636 L20.4177944,28 L26.3153645,28 Z M35.4667664,1.12 L29.9759252,1.12 L29.9759252,28 L35.4667664,28 L35.4667664,1.12 Z M50.3937196,1.12 C54.7321622,1.12 58.2571462,2.34181818 60.9686729,4.78545455 C63.6801996,7.22909091 65.0359626,10.460121 65.0359626,14.4785455 C65.0359626,18.4426665 63.6734206,21.6872727 60.9483364,24.2123636 C58.2232523,26.7374545 54.7050467,28 50.3937196,28 L41.6083738,28 L41.6083738,1.12 L50.3937196,1.12 Z M50.3530467,6.08872727 L47.099215,6.08872727 L47.099215,23.0312727 L50.3530467,23.0312727 C53.0645734,23.0312727 55.2473518,22.2506665 56.9013832,20.6894545 C58.5554145,19.1282426 59.3824299,17.0579392 59.3824299,14.4785455 C59.3824299,11.872 58.5621929,9.82206081 56.9217196,8.32872727 C55.2812463,6.83539373 53.0916883,6.08872727 50.3530467,6.08872727 Z" id="ΛID" fill="#1ABC9C"></path>
                    <path d="M79.9069907,1.12 C82.7540935,1.12 85.0792276,1.91418182 86.8823925,3.50254545 C88.6855574,5.09090909 89.5871402,7.18836364 89.5871402,9.79490909 C89.5871402,12.3743028 88.6855574,14.4717574 86.8823925,16.0872727 C85.0792276,17.7027881 82.7540935,18.5105455 79.9069907,18.5105455 L75.3109533,18.5105455 L75.3109533,28 L69.8201121,28 L69.8201121,1.12 L79.9069907,1.12 Z M79.9069907,5.96654545 L75.3109533,5.96654545 L75.3109533,13.7047273 L79.9069907,13.7047273 C81.1814079,13.7047273 82.1778939,13.3449699 82.8964486,12.6254545 C83.6150033,11.9059392 83.9742804,10.9624244 83.9742804,9.79490909 C83.9742804,8.65454545 83.6082243,7.73139373 82.8761121,7.02545455 C82.144,6.31951536 81.154293,5.96654545 79.9069907,5.96654545 Z M108.052636,28 L106.547738,24.4974545 L95.5660561,24.4974545 L94.0611589,28 L88.1635888,28 L100.162093,0.631272727 L101.992374,0.631272727 L113.950206,28 L108.052636,28 Z M104.595439,19.9767273 L101.056897,10.9352727 L97.5183551,19.9767273 L104.595439,19.9767273 Z M135.750879,1.12 L126.518131,17.4109091 L126.518131,28 L121.02729,28 L121.02729,17.4516364 L111.753869,1.12 L117.854804,1.12 L123.752374,11.7905455 L129.690617,1.12 L135.750879,1.12 Z" id="PAY" fill="#2C3E50"></path>
                </g>
            </g>
        </g>
    </g>
</svg>